HIERARCHY
ROOT Hips
{
    OFFSET 0.000000 0.000000 0.000000
    CHANNELS 6 Xposition Yposition Zposition Zrotation Xrotation Yrotation
    JOINT Spine
    {
        OFFSET -0.000000 14.517291 0.000000
        CHANNELS 3 Zrotation Xrotation Yrotation
        JOINT Spine1
        {
            OFFSET -0.000000 37.558300 0.000000
            CHANNELS 3 Zrotation Xrotation Yrotation
            JOINT Neck
            {
                OFFSET -0.000000 37.404057 3.400369
                CHANNELS 3 Zrotation Xrotation Yrotation
                JOINT Head
                {
                    OFFSET -0.000000 24.785618 -3.540803
                    CHANNELS 3 Zrotation Xrotation Yrotation
                    End Site
                    {
                        OFFSET -0.000000 35.408028 0.000000
                    }
                }
            }
            JOINT LeftShoulder
            {
                OFFSET 6.992933 33.973492 -0.192664
                CHANNELS 3 Zrotation Xrotation Yrotation
                JOINT LeftArm
                {
                    OFFSET 21.527611 0.000000 0.000000
                    CHANNELS 3 Zrotation Xrotation Yrotation
                    JOINT LeftForeArm
                    {
                        OFFSET 56.353916 0.000000 0.000000
                        CHANNELS 3 Zrotation Xrotation Yrotation
                        JOINT LeftHand
                        {
                            OFFSET 47.774071 0.000000 0.000000
                            CHANNELS 3 Zrotation Xrotation Yrotation
                            End Site
                            {
                                OFFSET 26.556021 0.000000 0.000000
                            }
                        }
                    }
                }
            }
            JOINT RightShoulder
            {
                OFFSET -7.065357 33.973492 -0.192664
                CHANNELS 3 Zrotation Xrotation Yrotation
                JOINT RightArm
                {
                    OFFSET -21.527611 0.000000 0.000000
                    CHANNELS 3 Zrotation Xrotation Yrotation
                    JOINT RightForeArm
                    {
                        OFFSET -56.353916 0.000000 0.000000
                        CHANNELS 3 Zrotation Xrotation Yrotation
                        JOINT RightHand
                        {
                            OFFSET -47.774071 0.000000 0.000000
                            CHANNELS 3 Zrotation Xrotation Yrotation
                            End Site
                            {
                                OFFSET -26.556021 0.000000 0.000000
                            }
                        }
                    }
                }
            }
        }
    }
    JOINT LeftUpLeg
    {
        OFFSET 17.704014 0.000000 0.000000
        CHANNELS 3 Zrotation Xrotation Yrotation
        JOINT LeftLeg
        {
            OFFSET -0.000000 -81.181816 0.000000
            CHANNELS 3 Zrotation Xrotation Yrotation
            JOINT LeftFoot
            {
                OFFSET -0.000000 -62.821102 0.000000
                CHANNELS 3 Zrotation Xrotation Yrotation
                JOINT LeftToeBase
                {
                    OFFSET -0.000000 -11.507608 26.556021
                    CHANNELS 3 Zrotation Xrotation Yrotation
                    End Site
                    {
                        OFFSET -0.000000 0.000000 7.081605
                    }
                }
            }
        }
    }
    JOINT RightUpLeg
    {
        OFFSET -17.704014 0.000000 0.000000
        CHANNELS 3 Zrotation Xrotation Yrotation
        JOINT RightLeg
        {
            OFFSET -0.000000 -81.181816 0.000000
            CHANNELS 3 Zrotation Xrotation Yrotation
            JOINT RightFoot
            {
                OFFSET -0.000000 -62.821102 0.000000
                CHANNELS 3 Zrotation Xrotation Yrotation
                JOINT RightToeBase
                {
                    OFFSET -0.000000 -11.507608 26.556021
                    CHANNELS 3 Zrotation Xrotation Yrotation
                    End Site
                    {
                        OFFSET -0.000000 0.000000 7.081605
                    }
                }
            }
        }
    }
}
MOTION
Frames:    5
Frame Time:    0.008333
-44.851906    149.245422    -27.043762    -0.773749    -0.192093    4.381353    -1.246789    3.169955    6.921494    -0.362732    -0.389751    2.295320    -0.471414    1.344644    -8.280792    11.270804    -5.457365    -6.428398    0.118723    5.872147    -7.692331    -41.621147    17.230246    -44.242119    1.780805    -31.771267    -125.496460    -7.925832    -28.195255    -9.662745    -0.513110    12.560549    -0.558446    41.125950    12.629066    53.943489    -26.332813    -29.060692    65.309517    13.150520    -9.449697    30.405146    16.326738    -31.961334    -10.747508    -14.820757    34.621662    -19.855457    -8.542583    -10.959371    34.626305    0.000000    0.000000    0.000000    -15.223493    15.296347    -24.547972    0.778125    12.893949    -9.501389    19.152225    -13.713202    -7.623395    0.000000    0.000000    0.000000    
-44.864689    149.229858    -27.015282    -0.761953    -0.212019    4.379624    -1.268844    3.173422    6.931202    -0.339833    -0.383871    2.298435    -0.474641    1.346225    -8.273799    11.240110    -5.428382    -6.429244    0.103307    5.867919    -7.695422    -41.625256    17.209240    -44.229641    1.774081    -31.750860    -125.509819    -7.911338    -28.186522    -9.652369    -0.530778    12.563672    -0.550322    41.107861    12.640372    53.962147    -26.351732    -29.082951    65.295021    13.170168    -9.459838    30.417168    16.330196    -31.939129    -10.735351    -14.842583    34.638153    -19.837141    -8.512060    -10.971136    34.608105    0.000000    0.000000    0.000000    -15.245187    15.325195    -24.543734    0.754257    12.981756    -9.476561    19.257261    -13.785803    -7.509607    0.000000    0.000000    0.000000    
-44.874310    149.214172    -26.986420    -0.740937    -0.238485    4.376483    -1.289602    3.190394    6.942435    -0.337460    -0.384041    2.301953    -0.518209    1.355755    -8.286706    11.293015    -5.404233    -6.429103    0.093574    5.869042    -7.697709    -41.613922    17.207973    -44.227646    1.783414    -31.772594    -125.506226    -7.923012    -28.191744    -9.662686    -0.540596    12.559483    -0.540353    41.099758    12.659100    53.970139    -26.376278    -29.096775    65.274841    13.146889    -9.469081    30.438955    16.321960    -31.911102    -10.718248    -14.852288    34.659546    -19.849289    -8.505797    -10.993902    34.598068    0.000000    0.000000    0.000000    -15.275876    15.323696    -24.514875    0.749170    13.067369    -9.480054    19.240639    -13.848392    -7.517740    0.000000    0.000000    0.000000    
-44.889843    149.197891    -26.954979    -0.723659    -0.261827    4.383137    -1.317214    3.191929    6.941341    -0.322354    -0.367725    2.301402    -0.519019    1.361236    -8.281959    11.275798    -5.398935    -6.427825    0.085238    5.871697    -7.687664    -41.602718    17.201159    -44.236202    1.786038    -31.785294    -125.503822    -7.927508    -28.200220    -9.663350    -0.547030    12.553067    -0.522645    41.085346    12.667302    53.981667    -26.409332    -29.100426    65.245613    13.136997    -9.461717    30.450476    16.317703    -31.887646    -10.701496    -14.860723    34.683571    -19.855497    -8.492191    -11.013181    34.574123    0.000000    0.000000    0.000000    -15.295360    15.333619    -24.487295    0.749769    13.133060    -9.493972    19.252792    -13.905137    -7.527357    0.000000    0.000000    0.000000    
-44.902103    149.187454    -26.926500    -0.707597    -0.278344    4.391874    -1.332242    3.191505    6.941128    -0.321331    -0.351689    2.301237    -0.544527    1.356870    -8.286460    11.300912    -5.378842    -6.426202    0.072030    5.861154    -7.689626    -41.588226    17.193470    -44.224304    1.789451    -31.790386    -125.502075    -7.902784    -28.201876    -9.657181    -0.558835    12.546955    -0.514211    41.094925    12.659750    53.993683    -26.385769    -29.089188    65.257813    13.136295    -9.458774    30.470434    16.308672    -31.867104    -10.676726    -14.857257    34.695705    -19.872295    -8.481973    -11.024666    34.557995    0.000000    0.000000    0.000000    -15.311920    15.345805    -24.484444    0.753135    13.176908    -9.508001    19.242506    -13.935415    -7.525345    0.000000    0.000000    0.000000    
